#!OML:ASF H:\BreakDance\Project 1\Capture day 1\Session 1\Male.ASF
:FULLY-SPECIFIED
:DEGREES
780
root 5.78979 15.6894 7.1429 -179.102 -67.7245 544.03
lowerback 3.12683 1.66601 0.734968
upperback 4.48041 2.13183 -2.13074
thorax 2.96702 1.06671 -2.61746
lowerneck -2.81701 1.94963 0.626195
upperneck 10.6125 2.0122 3.78949
head 3.92474 1.10637 1.22909
rclavicle -1.37161e-014 -2.22639e-014
rhumerus 33.0901 37.0337 -57.4628
rradius 35.9061
rwrist 12.3501
rhand -43.034 -33.0162
rfingers 7.12502
rthumb -15.8911 -62.3841
lclavicle -1.37161e-014 -2.22639e-014
lhumerus 37.4078 -37.0017 48.0918
lradius 35.5138
lwrist -12.2331
lhand -44.1804 -394.108
lfingers 7.12502
lthumb -16.9949 -4.83125
rfemur -26.4847 -18.3401 5.91554
rtibia 44.3373
rfoot -12.1696 -7.24293
rtoes -30.3656
lfemur -19.3416 0.588798 -1.55942
ltibia 35.8011
lfoot -25.5501 15.3257
ltoes -41.8945
781
root 5.79509 15.6994 7.17633 -177.58 -66.2128 541.789
lowerback 3.70158 1.91253 0.110896
upperback 4.53245 2.43359 -2.21709
thorax 2.69098 1.19214 -2.37627
lowerneck -3.12217 2.19465 0.616974
upperneck 10.911 2.39523 3.1756
head 4.08965 1.27542 1.0526
rclavicle 2.94201e-014 -3.57812e-014
rhumerus 33.1599 37.276 -57.7529
rradius 35.8116
rwrist 12.9825
rhand -42.8986 -33.0321
rfingers 7.12502
rthumb -15.7607 -62.4104
lclavicle 2.94201e-014 -3.57812e-014
lhumerus 35.9638 -36.6485 49.4232
lradius 35.9047
lwrist -12.2136
lhand -43.1133 -393.694
lfingers 7.12502
lthumb -15.9675 -4.33174
rfemur -26.6204 -16.516 4.91006
rtibia 44.5419
rfoot -11.9836 -7.43775
rtoes -28.7398
lfemur -18.0799 0.203561 -2.67527
ltibia 35.5505
lfoot -25.5896 16.7121
ltoes -41.4028
782
root 5.80782 15.7081 7.19673 -176.252 -64.8025 539.838
lowerback 4.14423 2.1429 -0.733886
upperback 4.63894 2.70082 -2.27816
thorax 2.52801 1.29366 -1.98487
lowerneck -3.47191 2.42922 0.649299
upperneck 11.1013 2.76039 2.64582
head 4.22897 1.43892 0.895926
rclavicle 6.95746e-015 -1.66979e-014
rhumerus 33.0746 37.3075 -58.2734
rradius 35.7853
rwrist 13.6053
rhand -42.9172 -32.9158
rfingers 7.12502
rthumb -15.7786 -62.2927
lclavicle 6.95746e-015 -1.66979e-014
lhumerus 34.4713 -36.1714 50.7329
lradius 36.4364
lwrist -12.1884
lhand -42.3658 -393.319
lfingers 7.12502
lthumb -15.2475 -3.90135
rfemur -26.7727 -14.5311 4.00552
rtibia 44.7002
rfoot -11.8979 -7.93085
rtoes -27.3661
lfemur -17.1407 0.68054 -3.67913
ltibia 35.4807
lfoot -25.3203 17.333
ltoes -41.2485
783
root 5.8229 15.7136 7.20301 -175.243 -63.6816 538.448
lowerback 4.2412 2.2948 -1.55555
upperback 4.76442 2.8708 -2.30701
thorax 2.56984 1.34783 -1.56104
lowerneck -3.75015 2.64529 0.725426
upperneck 11.1346 3.09023 2.25149
head 4.30008 1.59077 0.772104
rclavicle 2.5842e-014 -1.27222e-014
rhumerus 32.7629 37.1774 -59.0659
rradius 35.8345
rwrist 14.079
rhand -43.1024 -32.7552
rfingers 7.12502
rthumb -15.957 -62.1179
lclavicle 2.5842e-014 -1.27222e-014
lhumerus 32.991 -35.6736 51.8973
lradius 37.0769
lwrist -12.0967
lhand -42.0244 -393.164
lfingers 7.12502
lthumb -14.9187 -3.72109
rfemur -26.9812 -12.5409 3.35262
rtibia 44.8166
rfoot -11.9409 -8.73288
rtoes -26.2021
lfemur -16.5875 1.79029 -4.38043
ltibia 35.4972
lfoot -24.9658 17.2456
ltoes -41.2269
784
root 5.83426 15.7194 7.19871 -174.585 -62.9992 537.716
lowerback 3.91089 2.3027 -2.1162
upperback 4.87423 2.87899 -2.30326
thorax 2.84112 1.32978 -1.23007
lowerneck -3.86806 2.84002 0.829554
upperneck 11.0012 3.37909 2.00055
head 4.27934 1.72847 0.684103
rclavicle 4.75095e-014 8.74653e-015
rhumerus 32.236 37.0009 -60.0699
rradius 35.9507
rwrist 14.2771
rhand -43.4029 -32.6632
rfingers 7.12502
rthumb -16.2463 -62.0025
lclavicle 4.75095e-014 8.74653e-015
lhumerus 31.5616 -35.2318 52.8499
lradius 37.7554
lwrist -11.9355
lhand -42.0622 -393.321
lfingers 7.12502
lthumb -14.9551 -3.88124
rfemur -27.2185 -10.731 3.01817
rtibia 44.8751
rfoot -12.0962 -9.80207
rtoes -25.3149
lfemur -16.4635 3.0266 -4.70794
ltibia 35.5415
lfoot -24.6089 16.7817
ltoes -41.3924
785
root 5.83778 15.727 7.18965 -174.279 -62.8041 537.587
lowerback 3.23529 2.13985 -2.29066
upperback 4.96675 2.69235 -2.26639
thorax 3.30504 1.22742 -1.06597
lowerneck -3.86101 3.01981 0.9532
upperneck 10.7743 3.63676 1.85574
head 4.19984 1.85545 0.622797
rclavicle -3.04141e-014 0
rhumerus 31.6023 36.8934 -61.1271
rradius 36.112
rwrist 14.1186
rhand -43.7324 -32.7379
rfingers 7.12502
rthumb -16.5636 -62.051
lclavicle -3.04141e-014 0
lhumerus 30.2467 -34.8795 53.5535
lradius 38.3767
lwrist -11.732
lhand -42.3574 -393.823
lfingers 7.12502
lthumb -15.2395 -4.40418
rfemur -27.3928 -9.2774 2.97202
rtibia 44.8523
rfoot -12.31 -11.0076
rtoes -24.7863
lfemur -16.6989 3.98246 -4.71731
ltibia 35.597
lfoot -24.2848 16.2629
ltoes -41.8264
